<?xml version="1.0" standalone="no"?>
<!DOCTYPE svg PUBLIC "-//W3C//DTD SVG 20010904//EN"
 "http://www.w3.org/TR/2001/REC-SVG-20010904/DTD/svg10.dtd">
<svg version="1.0" xmlns="http://www.w3.org/2000/svg"
 width="290.000000pt" height="290.000000pt" viewBox="0 0 290.000000 290.000000"
 preserveAspectRatio="xMidYMid meet">
<metadata>
Created by potrace 1.11, written by Peter Selinger 2001-2013
</metadata>
<g transform="translate(0.000000,290.000000) scale(0.100000,-0.100000)"
fill="#000000" stroke="none">
<path d="M1260 2727 c-129 -61 -190 -206 -145 -345 21 -62 83 -134 140 -161
54 -25 146 -28 198 -6 54 22 106 73 133 129 19 40 24 66 24 128 0 115 -34 179
-125 237 -44 28 -57 31 -124 30 -42 0 -87 -6 -101 -12z m192 -76 c64 -41 98
-101 98 -175 0 -69 -16 -111 -61 -154 -81 -79 -175 -80 -263 -3 -24 21 -66
109 -66 139 0 76 55 172 118 206 15 7 50 14 78 15 39 1 60 -5 96 -28z"/>
<path d="M432 2273 c3 -26 8 -29 105 -53 62 -15 103 -30 103 -37 0 -7 -22 -40
-48 -73 -64 -79 -133 -212 -172 -332 -28 -85 -32 -109 -28 -180 5 -119 53
-203 138 -245 112 -55 263 -20 342 81 49 62 63 96 79 189 18 106 -7 302 -55
437 -24 69 -23 73 27 65 23 -3 53 -10 67 -15 14 -4 60 -16 103 -25 42 -10 80
-22 83 -27 4 -5 -8 -24 -25 -42 -17 -18 -40 -56 -51 -84 -19 -48 -20 -78 -20
-397 l0 -344 -29 -113 c-39 -150 -59 -222 -77 -284 -11 -39 -35 -74 -114 -162
-54 -61 -107 -126 -117 -144 -19 -37 -22 -153 -4 -171 6 -6 11 -17 11 -24 0
-10 -47 -13 -224 -13 -177 0 -226 -3 -235 -14 -15 -18 -4 -45 23 -51 11 -3
551 -4 1198 -3 1240 3 1219 2 1192 46 -10 15 -41 17 -338 20 -274 2 -326 5
-326 17 0 7 4 16 9 19 25 16 22 111 -7 216 -89 316 -93 326 -211 525 -62 105
-124 206 -137 225 -16 24 -27 61 -34 115 -6 44 -15 108 -20 141 -6 34 -10 73
-10 88 0 27 1 27 48 21 26 -4 64 -11 84 -16 47 -12 57 -7 157 79 166 145 162
143 260 116 68 -19 94 -14 89 17 -3 25 -14 32 -83 51 l-50 14 -1 61 c-2 76
-25 119 -80 150 -74 42 -123 29 -232 -64 -35 -29 -67 -53 -72 -53 -5 0 -35 7
-67 15 -32 9 -78 20 -103 26 -25 5 -61 14 -80 18 -19 5 -71 16 -115 25 -44 9
-96 21 -115 26 -19 5 -111 28 -205 50 -259 62 -360 87 -474 115 -57 14 -117
25 -133 25 -26 0 -29 -3 -26 -27z m350 -130 c27 -30 67 -129 87 -213 74 -314
-14 -532 -214 -534 -122 -1 -204 86 -205 214 0 125 111 373 224 497 51 57 81
66 108 36z m1253 -95 c33 -32 39 -47 36 -95 -1 -31 -83 -108 -247 -234 l-34
-27 -72 14 c-40 8 -93 14 -117 14 l-43 0 6 -77 c4 -43 11 -105 16 -138 29
-199 33 -215 65 -263 17 -27 34 -55 37 -63 3 -8 52 -90 108 -184 94 -158 104
-180 142 -310 87 -304 88 -312 42 -359 -39 -38 -78 -51 -114 -36 -60 25 -69
46 -131 304 l-33 140 -103 140 c-110 150 -148 196 -160 196 -18 -1 -30 -18
-45 -65 -83 -255 -112 -325 -158 -378 -36 -43 -101 -123 -158 -197 -94 -119
-130 -150 -175 -150 -31 0 -46 7 -73 34 -30 30 -34 40 -34 85 0 50 1 52 102
168 57 65 108 124 115 131 6 6 14 20 16 30 3 9 22 80 42 157 20 77 45 170 56
207 17 60 19 100 19 420 0 328 2 356 20 396 22 49 34 63 81 91 37 23 128 29
183 11 17 -5 74 -19 126 -30 52 -12 106 -26 120 -30 14 -5 43 -11 65 -15 43
-6 46 -5 144 79 41 35 92 65 114 66 4 0 23 -15 42 -32z m-509 -1194 c110 -152
122 -172 132 -227 13 -68 67 -274 81 -310 6 -16 11 -30 11 -33 0 -2 -157 -4
-350 -4 -238 0 -350 3 -350 11 0 9 155 206 241 306 35 41 49 71 98 216 44 127
48 137 60 137 4 0 39 -43 77 -96z"/>
</g>
</svg>
